<?xml version="1.0" encoding="UTF-8" standalone="no"?>
<!-- Created with Inkscape (http://www.inkscape.org/) -->

<svg
   xmlns:dc="http://purl.org/dc/elements/1.1/"
   xmlns:cc="http://creativecommons.org/ns#"
   xmlns:rdf="http://www.w3.org/1999/02/22-rdf-syntax-ns#"
   xmlns:svg="http://www.w3.org/2000/svg"
   xmlns="http://www.w3.org/2000/svg"
   xmlns:sodipodi="http://sodipodi.sourceforge.net/DTD/sodipodi-0.dtd"
   xmlns:inkscape="http://www.inkscape.org/namespaces/inkscape"
   width="192"
   height="192"
   viewBox="0 0 50.799999 50.799999"
   version="1.1"
   id="svg2748"
   inkscape:version="0.92.5 (2060ec1f9f, 2020-04-08)"
   sodipodi:docname="icon.svg">
  <defs
     id="defs2742" />
  <sodipodi:namedview
     id="base"
     pagecolor="#ffffff"
     bordercolor="#666666"
     borderopacity="1.0"
     inkscape:pageopacity="0.0"
     inkscape:pageshadow="2"
     inkscape:zoom="1.4"
     inkscape:cx="336.96346"
     inkscape:cy="346.97913"
     inkscape:document-units="px"
     inkscape:current-layer="layer1"
     showgrid="false"
     units="px"
     inkscape:window-width="2560"
     inkscape:window-height="1392"
     inkscape:window-x="0"
     inkscape:window-y="24"
     inkscape:window-maximized="1" />
  <metadata
     id="metadata2745">
    <rdf:RDF>
      <cc:Work
         rdf:about="">
        <dc:format>image/svg+xml</dc:format>
        <dc:type
           rdf:resource="http://purl.org/dc/dcmitype/StillImage" />
        <dc:title></dc:title>
      </cc:Work>
    </rdf:RDF>
  </metadata>
  <g
     inkscape:label="Calque 1"
     inkscape:groupmode="layer"
     id="layer1"
     transform="translate(0,-246.20001)">
    <g
       id="g2337"
       transform="matrix(0.33521485,0,0,0.33521485,10.002609,117.14639)">
      <g
         transform="translate(-392.54679,140.45767)"
         id="g2347">
        <path
           inkscape:connector-curvature="0"
           style="color:#000000;clip-rule:nonzero;display:inline;overflow:visible;visibility:visible;opacity:1;isolation:auto;mix-blend-mode:normal;color-interpolation:sRGB;color-interpolation-filters:linearRGB;solid-color:#000000;solid-opacity:1;vector-effect:none;fill:#aa8800;fill-opacity:1;fill-rule:nonzero;stroke:none;stroke-width:5.56894398;stroke-linecap:butt;stroke-linejoin:miter;stroke-miterlimit:4;stroke-dasharray:none;stroke-dashoffset:0;stroke-opacity:1;marker:none;color-rendering:auto;image-rendering:auto;shape-rendering:auto;text-rendering:auto;enable-background:accumulate"
           d="m 1657.2461,944.26172 a 267.25803,267.25803 0 0 0 -19.084,0.95508 l -113.7812,313.2793 -5.6973,181.2617 a 267.25803,267.25803 0 0 0 109.8906,37.1641 h 58.8047 a 267.25803,267.25803 0 0 0 21.5098,-3.252 l 70.9648,-90.3203 116.957,-289.5625 A 267.25803,267.25803 0 0 0 1657.2461,944.26172 Z m -58.832,6.79297 A 267.25803,267.25803 0 0 0 1546,968.82227 a 136.50185,438.70745 0 0 1 6.084,96.55663 185.49013,475.88871 17.022955 0 1 46.3301,-114.32421 z m -110.7383,54.07811 a 267.25803,267.25803 0 0 0 -97.6875,206.3867 267.25803,267.25803 0 0 0 100.3183,208.6387 422.18714,93.465933 85.463864 0 0 7.4122,-319.9687 422.18714,93.465933 85.463864 0 0 -10.043,-95.0567 z m 426.5078,133.7305 a 185.49013,475.88871 17.022955 0 1 -7.541,30.3164 185.49013,475.88871 17.022955 0 1 -110.334,270.1797 267.25803,267.25803 0 0 0 128.1953,-227.8399 267.25803,267.25803 0 0 0 -10.3203,-72.6562 z"
           transform="scale(0.26458333)"
           id="rect1765-3" />
        <path
           inkscape:connector-curvature="0"
           style="opacity:1;vector-effect:none;fill:#d4aa00;fill-opacity:1;stroke:none;stroke-width:3.35070586;stroke-linecap:butt;stroke-linejoin:miter;stroke-miterlimit:4;stroke-dasharray:none;stroke-dashoffset:0;stroke-opacity:1;marker:none"
           d="m 1638.1621,945.2168 a 267.25803,267.25803 0 0 0 -39.7363,5.83398 185.49013,475.88871 17.022955 0 0 -46.3418,114.32812 136.50187,438.70745 0 0 0 -6.0801,-96.55859 267.25803,267.25803 0 0 0 -58.334,36.31639 422.18714,93.465933 85.463864 0 1 10.0489,95.0528 422.18714,93.465933 85.463864 0 1 -7.4219,319.9589 267.25803,267.25803 0 0 0 28.3867,19.6094 l 5.6973,-181.2617 z m 258.6484,148.5703 -116.957,289.5625 -70.9648,90.3203 a 267.25803,267.25803 0 0 0 87.7129,-34.4922 185.49013,475.88871 17.022955 0 0 110.041,-269.998 185.49013,475.88871 17.022955 0 0 7.4804,-30.5547 267.25803,267.25803 0 0 0 -17.3125,-44.8379 z"
           transform="scale(0.26458333)"
           id="path1767-6" />
        <path
           inkscape:connector-curvature="0"
           style="opacity:1;vector-effect:none;fill:#ffd42a;fill-opacity:1;stroke:none;stroke-width:3.78520775;stroke-linecap:butt;stroke-linejoin:miter;stroke-miterlimit:4;stroke-dasharray:none;stroke-dashoffset:0;stroke-opacity:1;marker:none"
           d="m 1657.2461,944.26172 a 267.25803,267.25803 0 0 0 -19.084,0.95508 l -113.7812,313.2793 -5.6973,181.2617 a 267.25803,267.25803 0 0 0 7.9707,4.5723 l 28.459,-78.2696 -21.125,-94.121 67.2305,-36.4922 5.7578,-140.2188 72.9902,-76.8379 -14.7676,-73.84763 a 267.25803,267.25803 0 0 0 -7.9531,-0.28125 z m -169.5703,60.87108 a 267.25803,267.25803 0 0 0 -28.2852,27.1719 c -9.7635,20.6794 -29.1308,53.3164 -29.1308,53.3164 l 42.2578,71.0723 c 0,0 -1.918,170.9544 -1.918,180.5586 0,2.7883 -4.826,24.1825 -11.6348,53.0175 a 267.25803,267.25803 0 0 0 31.3418,29.8887 422.18714,93.465933 85.463864 0 0 7.4122,-319.9687 422.18714,93.465933 85.463864 0 0 -10.043,-95.0567 z m 383.8515,47.1992 -53.2597,48.6563 19.209,86.4375 -97.9629,88.3554 23.0488,74.9122 -69.1465,-5.7598 c 0,0 1.916,94.1214 1.916,101.8047 0,3.0114 -22.543,15.7931 -49.8144,30.1836 h 41.8613 a 267.25803,267.25803 0 0 0 21.5098,-3.252 l 70.9648,-90.3203 116.957,-289.5625 a 267.25803,267.25803 0 0 0 -25.2832,-41.4551 z"
           transform="scale(0.26458333)"
           id="path2427-7" />
        <path
           inkscape:connector-curvature="0"
           style="opacity:1;vector-effect:none;fill:#ffe680;fill-opacity:1;stroke:none;stroke-width:3.35070586;stroke-linecap:butt;stroke-linejoin:miter;stroke-miterlimit:4;stroke-dasharray:none;stroke-dashoffset:0;stroke-opacity:1;marker:none"
           d="m 1665.1992,944.54297 14.7676,73.84763 -72.9902,76.8379 -5.7578,140.2188 -67.2305,36.4922 21.125,94.121 -28.459,78.2696 a 267.25803,267.25803 0 0 0 64.248,25.8633 l 13.3789,-39.4688 -4.0781,-118.1641 39.3907,-46.1777 -1.3536,-42.1055 55.6856,-85.5683 -14.9414,-43.4668 40.7461,-77.4141 1.7675,-65.45115 a 267.25803,267.25803 0 0 0 -56.2988,-7.83398 z m 169.1094,67.23043 c -23.0917,23.5465 -41.8757,42.5274 -43.9512,44.084 -5.4329,4.0747 -5.4336,95.0721 -5.4336,101.8633 0,6.7911 -86.9277,73.3496 -86.9277,73.3496 v 46.1758 c 0,0 -58.4042,100.513 -65.1953,111.3789 -4.1516,6.6425 -23.2832,49.2224 -38.0469,82.4336 a 267.25803,267.25803 0 0 0 33.8203,5.8633 h 16.9434 c 27.2714,-14.3905 49.8144,-27.1722 49.8144,-30.1836 0,-7.6833 -1.916,-101.8047 -1.916,-101.8047 l 69.1465,5.7598 -23.0488,-74.9122 97.9629,-88.3554 -19.209,-86.4375 53.2597,-48.6563 a 267.25803,267.25803 0 0 0 -37.2187,-40.5586 z m -374.918,20.5313 a 267.25803,267.25803 0 0 0 -44.6699,67.6933 l 0.7695,94.3965 -16.7109,-50.1328 a 267.25803,267.25803 0 0 0 -8.791,67.2578 267.25803,267.25803 0 0 0 68.9765,178.75 c 6.8088,-28.835 11.6348,-50.2292 11.6348,-53.0175 0,-9.6042 1.918,-180.5586 1.918,-180.5586 l -42.2578,-71.0723 c 0,0 19.3673,-32.637 29.1308,-53.3164 z"
           transform="scale(0.26458333)"
           id="path1312-5" />
        <path
           inkscape:connector-curvature="0"
           style="opacity:1;vector-effect:none;fill:#ffeeaa;fill-opacity:1;stroke:none;stroke-width:3.35070586;stroke-linecap:butt;stroke-linejoin:miter;stroke-miterlimit:4;stroke-dasharray:none;stroke-dashoffset:0;stroke-opacity:1;marker:none"
           d="m 1721.498,952.37695 -1.7675,65.45115 -40.7461,77.4141 14.9414,43.4668 -55.6856,85.5683 1.3536,42.1055 -39.3907,46.1777 4.0781,118.1641 -13.3789,39.4688 a 267.25803,267.25803 0 0 0 3.8516,0.8652 c 14.7637,-33.2112 33.8953,-75.7911 38.0469,-82.4336 6.7911,-10.8659 65.1953,-111.3789 65.1953,-111.3789 v -46.1758 c 0,0 86.9277,-66.5585 86.9277,-73.3496 0,-6.7912 7e-4,-97.7886 5.4336,-101.8633 2.0755,-1.5566 20.8595,-20.5375 43.9512,-44.084 a 267.25803,267.25803 0 0 0 -23.5527,-18.63082 c -22.7961,33.03082 -44.9283,64.82342 -46.2696,67.50582 -2.8813,5.7626 -5.7656,66.2735 -5.7656,66.2735 l -78.7539,108.5254 -55.6992,116.2089 33.6113,-108.5253 24.9727,-51.8633 41.2949,-70.1114 -13.4414,-51.8632 31.6875,-55.6992 17.0195,-48.78716 A 267.25803,267.25803 0 0 0 1721.498,952.37695 Z M 1414.7207,1099.998 a 267.25803,267.25803 0 0 0 -15.9414,44.2637 l 16.7109,50.1328 z"
           transform="scale(0.26458333)"
           id="path1356-3" />
        <path
           inkscape:connector-curvature="0"
           style="opacity:1;vector-effect:none;fill:#fff6d5;fill-opacity:1;stroke:none;stroke-width:3.35070586;stroke-linecap:butt;stroke-linejoin:miter;stroke-miterlimit:4;stroke-dasharray:none;stroke-dashoffset:0;stroke-opacity:1;marker:none"
           d="m 1759.4121,964.80664 -17.0195,48.78716 -31.6875,55.6992 13.4414,51.8632 -41.2949,70.1114 -24.9727,51.8633 -33.6113,108.5253 55.6992,-116.2089 78.7539,-108.5254 c 0,0 2.8843,-60.5109 5.7656,-66.2735 1.3413,-2.6824 23.4735,-34.475 46.2696,-67.50582 a 267.25803,267.25803 0 0 0 -51.3438,-28.33594 z"
           transform="scale(0.26458333)"
           id="path1389-5" />
      </g>
      <path
         style="color:#000000;clip-rule:nonzero;display:inline;overflow:visible;visibility:visible;opacity:1;isolation:auto;mix-blend-mode:normal;color-interpolation:sRGB;color-interpolation-filters:linearRGB;solid-color:#000000;solid-opacity:1;vector-effect:none;fill:#000000;fill-opacity:1;fill-rule:nonzero;stroke:none;stroke-width:1.40043962;stroke-linecap:butt;stroke-linejoin:miter;stroke-miterlimit:4;stroke-dasharray:none;stroke-dashoffset:0;stroke-opacity:1;marker:none;filter:url(#filter1949);color-rendering:auto;image-rendering:auto;shape-rendering:auto;text-rendering:auto;enable-background:accumulate"
         d="m 74.116994,428.35997 c -2.391082,-0.0165 -4.340921,1.35134 -6.005311,3.00601 -2.671379,-4.53156 -5.386811,2.32848 -6.012561,4.57078 l 1.53118,-0.091 c 0.94392,4.08888 -3.68491,5.63106 -3.359999,9.0749 0.812041,-0.0725 1.511491,-0.48631 2.11614,0.10284 -0.796851,0.97369 -2.022311,1.49331 -1.785929,2.81585 1.280038,-0.27065 1.797058,-0.47039 2.659269,0.42581 -0.493231,1.1006 0.28702,2.0678 -5.190901,2.08049 -23.12294,2.32803 -45.226491,-14.29034 -63.0400797,-6.77426 -3.86911,3.3301 -5.4499603,7.67988 -6.9354903,12.38787 l 0.1235,1.37873 c 4.5444003,-4.0854 8.6148103,-5.29474 14.6337403,-6.18308 0.461251,2.75887 0.0342,5.54428 -0.126611,8.31577 11.7306307,-5.20017 22.6960797,3.48078 32.1220707,0.16846 -0.414679,2.87357 1.994421,3.72884 4.37493,4.29898 -6.10325,4.47991 -13.642179,7.60878 -19.560561,10.3239 -5.186148,-2.89688 -9.9226577,-6.73097 -14.1340287,-9.18445 -22.0645513,2.73742 -15.5264403,27.40431 -3.694861,12.55116 5.161812,0.30821 9.3672397,3.54415 14.0766617,4.7062 l 0.925528,-0.0589 c 9.558002,1.00285 16.158811,-4.31337 22.932962,-8.43308 1.864198,2.14769 3.85332,1.10189 6.253879,1.16169 6.131441,3.39193 12.39882,1.97657 17.720882,3.97391 2.535697,7.39151 1.853779,13.39655 7.230049,18.4113 7.269849,3.04442 17.525999,-7.10685 16.680119,-14.99497 -2.83103,-3.57608 -5.31909,-1.77758 -9.49606,-0.6258 -1.68851,-3.3587 -5.33354,-8.56547 -7.617619,-10.40247 l -0.171061,-0.78238 c -5.19675,-1.91662 -10.93148,-2.32557 -16.42432,-1.82986 v -5.3e-4 c 2.290011,-4.6995 6.52771,-5.63597 10.366301,-8.78447 3.82824,2.33395 7.670991,4.59313 12.217339,4.99246 l -0.0925,0.55552 c 5.36791,0.836 10.80103,0.82085 16.20779,0.45424 3.55727,0.67573 6.47236,1.60791 7.34684,-1.01493 1.305118,-0.73352 1.049838,-2.34894 0.394808,-3.47472 2.51477,-3.18539 -0.2767,-5.29444 -3.838008,-3.92845 -1.75368,-0.67063 -3.85057,-0.90267 -4.00389,1.42937 -5.04295,-1.17614 -8.34775,-1.39241 -13.29324,-0.3545 -4.445251,-1.19417 -8.389468,-3.39639 -11.39827,-5.34954 0.386021,-0.40841 0.818142,-0.7648 1.245401,-1.1281 4.983859,2.05398 9.649929,4.99068 10.739399,-1.61334 5.99791,0.95961 6.09508,-1.34272 7.14633,-8.45478 0.72001,0.45046 1.41028,0.94452 2.1053,1.43196 l 0.0232,-0.008 1.5689,-2.57555 c 2.92559,-0.50085 5.85736,-0.16001 8.78086,-0.56896 -1.52866,-2.07156 -3.60769,-3.64701 -5.6379,-5.194 l 1.82469,-1.53531 c -2.26507,-1.80047 -5.15154,-2.39792 -7.90753,-3.00498 l 0.91881,-1.31207 h -5.3e-4 c -4.64807,-1.38542 -9.30415,-0.46553 -13.867896,0.75344 l -0.187589,-1.68671 c -0.16337,-0.0137 -0.3248,-0.0211 -0.484209,-0.0222 z m 0.0548,13.01522 6.177398,2.80035 c 0,0 -1.31862,1.44476 -2.35541,1.55546 -1.03678,0.11073 -2.49168,-0.40133 -3.199797,-1.24437 -0.708141,-0.84303 -0.622191,-3.11144 -0.622191,-3.11144 z m 7.123598,3.17035 c 0,0 4.11686,1.00556 4.55683,1.1312 0,0 -0.49937,0.88466 -1.28882,1.19424 -0.78944,0.30958 -2.67338,0.6757 -3.33106,0 -0.65766,-0.67569 0.0631,-2.32544 0.0631,-2.32544 z"
         id="path825"
         inkscape:connector-curvature="0" />
    </g>
  </g>
</svg>
